<svg xmlns="http://www.w3.org/2000/svg" viewBox="0 0 320 320" role="img" aria-label="Illustrated fictional AI contributor"><rect width="320" height="320" fill="#e2d1c7"/><circle cx="160" cy="145" r="115" fill="#ffffff" opacity=".25"/><path d="M48 320Q60 246 160 240Q260 246 272 320" fill="#183d60"/><rect x="141" y="207" width="38" height="56" rx="15" fill="#c98e72"/><ellipse cx="160" cy="147" rx="72" ry="92" fill="#c98e72"/><path d="M86 146Q70 40 160 45Q250 40 234 146Q223 108 212 89Q150 120 99 98Z" fill="#261e23"/><path d="M124 149q13 -10 26 0M171 149q13 -10 26 0" fill="none" stroke="#49342d" stroke-width="4" stroke-linecap="round"/><path d="M144 190q16 12 32 0" fill="none" stroke="#985e58" stroke-width="4" stroke-linecap="round"/><path d="M159 155l-5 20 9 1" fill="none" stroke="#a67560" stroke-width="3" stroke-linecap="round"/></svg>